<svg width="26" height="26" viewBox="0 0 26 26" fill="none" xmlns="http://www.w3.org/2000/svg">
<path d="M18.3613 18.3613C19.1423 17.5804 20.4084 17.5804 21.1895 18.3613L24.4395 21.6113C25.2205 22.3924 25.2204 23.6584 24.4395 24.4395C23.6584 25.2205 22.3924 25.2205 21.6113 24.4395L18.3613 21.1895C17.5804 20.4084 17.5803 19.1423 18.3613 18.3613ZM9.75 0C15.1347 0.000132911 19.5 4.36531 19.5 9.75C19.4999 15.1346 15.1346 19.4999 9.75 19.5C4.36531 19.5 0.000133558 15.1347 0 9.75C0 4.36522 4.36522 0 9.75 0ZM9.75 3C6.02208 3 3 6.02208 3 9.75C3.00013 13.4778 6.02216 16.5 9.75 16.5C13.4777 16.4999 16.4999 13.4777 16.5 9.75C16.5 6.02216 13.4778 3.00013 9.75 3Z" fill="#101D2F"/>
</svg>
