<svg width="684" height="297" viewBox="0 0 684 297" fill="none" xmlns="http://www.w3.org/2000/svg">
<path d="M103.22 60.7187C113.516 56.4352 129.72 57.5775 141.71 59.3375C150.09 60.5475 154.04 56.2275 153.37 50.9175L149.43 19.4975C149.068 16.5719 147.82 13.8269 145.854 11.6303C143.888 9.43373 142 8.15585 138.43 7.20747C93.4858 -4.73204 46.78 -2.02253 28.52 16.7175C5.39 40.3475 16.11 72.1075 53.68 81.1675C54.1642 81.2309 54.6084 81.4693 54.929 81.8378C55.2495 82.2062 55.4241 82.6791 55.42 83.1675C55.42 83.7138 55.203 84.2378 54.8166 84.6241C54.4303 85.0104 53.9063 85.2275 53.36 85.2275H11.47C8.44006 85.2274 5.53318 86.4262 3.38413 88.5622C1.23509 90.6981 0.0184914 93.5976 0 96.6275V124.847C0.00265065 127.885 1.21121 130.797 3.36009 132.944C5.50897 135.091 8.42235 136.297 11.46 136.297H43.41C43.8723 136.301 44.3244 136.434 44.7153 136.681C45.1061 136.928 45.4201 137.279 45.6219 137.695C45.8236 138.111 45.9051 138.575 45.857 139.035C45.809 139.495 45.6334 139.932 45.35 140.297C39.35 147.817 24.12 163.297 20.72 196.827C18.13 222.427 22.6 238.827 26.31 248.997C29.76 258.447 37.68 261.788 43.31 261.788H111.84C113.164 261.79 114.471 261.49 115.661 260.91C116.851 260.33 117.893 259.486 118.707 258.442C119.521 257.398 120.086 256.182 120.359 254.887C120.631 253.592 120.604 252.251 120.28 250.967C114.88 230.097 93.18 191.337 107.93 142.487C108.541 140.738 109.662 139.211 111.149 138.105C112.635 136.998 114.419 136.362 116.27 136.277H136.58C139.484 136.278 142.306 135.322 144.613 133.558C146.919 131.794 148.58 129.32 149.34 126.517L157.34 96.9375C157.716 95.5528 157.768 94.1001 157.493 92.692C157.217 91.2838 156.621 89.958 155.751 88.8171C154.881 87.6763 153.76 86.751 152.475 86.1129C151.19 85.4748 149.775 85.141 148.34 85.1375H103.22C99.77 85.1375 95.5 83.7187 93.5 80.2187C91 75.8437 90 66.2187 103.22 60.7187Z" fill="url(#paint0_linear_4030_34241)"/>
<path d="M176.471 67.7206C183.841 74.2806 194.081 77.8906 205.291 77.8906C216.501 77.8906 226.721 74.2806 234.091 67.7206C237.808 64.4195 240.775 60.3609 242.793 55.8176C244.811 51.2744 245.833 46.3517 245.791 41.3806C245.791 20.5806 228.371 4.89062 205.291 4.89062C182.211 4.89062 164.791 20.5806 164.791 41.3906C164.74 46.3541 165.763 51.2699 167.791 55.8006C169.801 60.3474 172.761 64.4117 176.471 67.7206Z" fill="url(#paint1_linear_4030_34241)"/>
<path d="M232.101 85.1562H178.181C171.807 85.1562 166.641 90.3229 166.641 96.6963V250.266C166.641 256.64 171.807 261.806 178.181 261.806H232.101C238.474 261.806 243.641 256.64 243.641 250.266V96.6963C243.641 90.3229 238.474 85.1562 232.101 85.1562Z" fill="url(#paint2_linear_4030_34241)"/>
<path d="M458.137 159.567C458.137 129.707 450.887 107.787 436.597 94.4169C426.157 84.6469 414.427 80.2969 398.597 80.2969C394.463 80.3167 390.334 80.5637 386.227 81.0369C352.997 84.7169 333.797 122.077 323.397 142.867C322.247 145.167 319.017 144.357 319.847 141.357L331.267 99.1569C331.688 97.265 331.624 95.2973 331.08 93.437C330.536 91.5767 329.531 89.8841 328.157 88.5169C325.88 86.3219 322.829 85.1144 319.667 85.1569H276.087C274.57 85.1569 273.068 85.456 271.666 86.0372C270.265 86.6184 268.992 87.4702 267.92 88.5439C266.848 89.6176 265.998 90.8922 265.42 92.2946C264.841 93.697 264.544 95.1997 264.547 96.7169V250.227C264.547 253.287 265.763 256.223 267.927 258.387C270.091 260.551 273.026 261.767 276.087 261.767H329.997C333.056 261.764 335.988 260.547 338.15 258.383C340.312 256.219 341.527 253.286 341.527 250.227V158.457C341.527 147.727 349.867 138.567 360.597 138.157C363.263 138.057 365.921 138.496 368.414 139.447C370.906 140.398 373.181 141.842 375.103 143.692C377.025 145.542 378.554 147.761 379.6 150.215C380.645 152.669 381.185 155.309 381.187 157.977V182.497L381.497 250.327C381.521 253.373 382.745 256.287 384.903 258.436C387.062 260.585 389.981 261.796 393.027 261.807H446.597C449.672 261.851 452.647 260.713 454.907 258.627C456.047 257.546 456.953 256.243 457.569 254.798C458.185 253.354 458.497 251.798 458.487 250.227L458.137 159.567Z" fill="url(#paint3_linear_4030_34241)"/>
<path d="M682.949 250.95C668.189 195.73 592.439 169.32 572.259 162.48C570.629 161.92 570.799 159.28 572.529 159.26C585.04 160.629 597.688 160.066 610.029 157.59C657.419 148.59 672.769 95.1201 660.819 63.7601C658.489 57.6501 651.749 54.6601 646.449 58.4901L550.999 127.56C550.888 127.642 550.767 127.709 550.639 127.76C550.386 127.842 550.118 127.862 549.857 127.818C549.595 127.775 549.348 127.669 549.135 127.511C548.923 127.352 548.751 127.145 548.635 126.906C548.519 126.668 548.462 126.405 548.469 126.14L548.569 92.3001C549.939 58.0601 518.839 30.3001 485.369 37.8501C478.369 39.4101 457.619 44.5901 457.619 44.5901C456.699 44.81 455.866 45.3012 455.229 46.0001C454.593 46.7016 454.181 47.5776 454.047 48.5151C453.914 49.4526 454.064 50.4087 454.479 51.2601C454.898 52.0986 455.555 52.7945 456.369 53.2601L466.519 59.1601C469.819 61.0602 472.239 64.1812 473.259 67.8501C475.889 77.2701 475.799 113.78 475.739 132.47V287.88C475.739 294.43 482.109 298.12 488.429 296.43C520.839 287.72 556.589 246.7 531.699 192.09C530.509 189.584 529.173 187.15 527.699 184.8C527.449 184.39 527.36 183.902 527.449 183.43C527.546 182.961 527.809 182.542 528.189 182.25C528.571 181.961 529.048 181.825 529.525 181.869C530.003 181.914 530.446 182.135 530.769 182.49L595.499 254.34C597.556 256.741 600.108 258.669 602.981 259.991C605.853 261.313 608.977 261.998 612.139 262H674.909C676.067 262.016 677.216 261.798 678.288 261.36C679.36 260.922 680.333 260.273 681.149 259.45C682.165 258.314 682.865 256.931 683.181 255.44C683.497 253.949 683.417 252.401 682.949 250.95ZM507.949 58.2101C507.826 59.4327 507.43 60.6119 506.789 61.6601C506.026 62.9343 504.925 63.9726 503.609 64.6601C502.296 65.3375 500.825 65.6485 499.35 65.5605C497.875 65.4725 496.452 64.9888 495.229 64.1601C494.007 63.3289 493.033 62.1827 492.41 60.843C491.787 59.5033 491.537 58.0199 491.689 56.5501C491.91 54.3886 492.981 52.4036 494.666 51.0317C495.501 50.3525 496.461 49.8442 497.491 49.5359C498.522 49.2277 499.603 49.1254 500.674 49.2351C501.744 49.3447 502.782 49.6641 503.729 50.175C504.676 50.6859 505.513 51.3783 506.192 52.2126C506.871 53.0469 507.38 54.0069 507.688 55.0377C507.996 56.0684 508.098 57.1498 507.989 58.2201L507.949 58.2101Z" fill="url(#paint4_linear_4030_34241)"/>
<defs>
<linearGradient id="paint0_linear_4030_34241" x1="268.5" y1="-81" x2="668.5" y2="515.5" gradientUnits="userSpaceOnUse">
<stop stop-color="#85F18F"/>
<stop offset="1" stop-color="#00D4FF"/>
</linearGradient>
<linearGradient id="paint1_linear_4030_34241" x1="268.5" y1="-81" x2="668.5" y2="515.5" gradientUnits="userSpaceOnUse">
<stop stop-color="#85F18F"/>
<stop offset="1" stop-color="#00D4FF"/>
</linearGradient>
<linearGradient id="paint2_linear_4030_34241" x1="268.5" y1="-81" x2="668.5" y2="515.5" gradientUnits="userSpaceOnUse">
<stop stop-color="#85F18F"/>
<stop offset="1" stop-color="#00D4FF"/>
</linearGradient>
<linearGradient id="paint3_linear_4030_34241" x1="268.5" y1="-81" x2="668.5" y2="515.5" gradientUnits="userSpaceOnUse">
<stop stop-color="#85F18F"/>
<stop offset="1" stop-color="#00D4FF"/>
</linearGradient>
<linearGradient id="paint4_linear_4030_34241" x1="268.5" y1="-81" x2="668.5" y2="515.5" gradientUnits="userSpaceOnUse">
<stop stop-color="#85F18F"/>
<stop offset="1" stop-color="#00D4FF"/>
</linearGradient>
</defs>
</svg>
